<svg xmlns="http://www.w3.org/2000/svg" width="56" height="56" viewBox="0 0 56 56"><defs><style>.a{fill:#fff;opacity:0;}.b{fill:#5288f5;}.c{fill:#e6edff;}</style></defs><g transform="translate(-324 -528)"><rect class="a" width="56" height="56" rx="10" transform="translate(324 528)"/><g transform="translate(336.153 539.346)"><path class="b" d="M1295.2,219.048l-9.909,6.607a2.656,2.656,0,0,1-2.948,0l-9.91-6.607a9.789,9.789,0,0,1-4.359-8.145V196.019a2.657,2.657,0,0,1,1.817-2.521l13.085-4.361a2.654,2.654,0,0,1,1.681,0l13.085,4.361a2.657,2.657,0,0,1,1.817,2.521V210.9A9.789,9.789,0,0,1,1295.2,219.048Z" transform="translate(-1268.07 -189)"/><path class="c" d="M1283.956,223.952a2.714,2.714,0,0,1-1.51-.457l-8.419-5.613a8.765,8.765,0,0,1-3.911-7.307V197.928a2.718,2.718,0,0,1,1.862-2.583l11.117-3.705a2.725,2.725,0,0,1,1.723,0l11.117,3.705a2.718,2.718,0,0,1,1.861,2.583v12.647a8.765,8.765,0,0,1-3.911,7.307l-8.419,5.613A2.714,2.714,0,0,1,1283.956,223.952Zm0-31.522a1.78,1.78,0,0,0-.566.092l-11.118,3.706a1.79,1.79,0,0,0-1.226,1.7v12.647a7.837,7.837,0,0,0,3.5,6.533l8.419,5.613a1.793,1.793,0,0,0,1.99,0l8.419-5.613a7.837,7.837,0,0,0,3.5-6.533V197.928a1.789,1.789,0,0,0-1.226-1.7l-11.118-3.706A1.782,1.782,0,0,0,1283.956,192.43Z" transform="translate(-1268.214 -189.175)"/><g transform="translate(5.058 8.601)"><g transform="translate(11.847)"><path class="c" d="M1288.575,216.615h-2.325V206l5.812-7.749,1.86,1.395-5.347,7.129Z" transform="translate(-1286.25 -198.25)"/><path class="c" d="M.852,6.7-.991,5.282,3.659-.762,5.5.655Z" transform="translate(4.951 3.54)"/></g><g transform="translate(0)"><path class="c" d="M1284.171,216.615h-2.325v-9.841l-5.347-7.129,1.86-1.395,5.812,7.749Z" transform="translate(-1273.719 -198.25)"/><path class="c" d="M3.659,6.7-.991.655.852-.762,5.5,5.282Z" transform="translate(0.991 3.54)"/></g></g></g></g></svg>