<svg xmlns="http://www.w3.org/2000/svg" width="56" height="56" viewBox="0 0 56 56"><defs><style>.a{fill:#fff;opacity:0;}.b{fill:#f3cb00;}.c{fill:none;stroke:#fff;stroke-linejoin:round;stroke-width:2px;}</style></defs><g transform="translate(-1620 -527)"><rect class="a" width="56" height="56" rx="10" transform="translate(1620 527)"/><g transform="translate(1630.693 541)"><path class="b" d="M897.844,253.769h-10.1l-1.3-2.607A5.721,5.721,0,0,0,881.33,248h-6.561A5.769,5.769,0,0,0,869,253.769h0v17.307a5.769,5.769,0,0,0,5.769,5.769h23.075a5.769,5.769,0,0,0,5.769-5.769V259.538A5.769,5.769,0,0,0,897.844,253.769Z" transform="translate(-869 -248)"/><line class="c" x2="34.462" transform="translate(0.076 13.345)"/></g></g></svg>