<svg xmlns="http://www.w3.org/2000/svg" width="56" height="56" viewBox="0 0 56 56"><defs><style>.a{fill:#fff;opacity:0;}.b{fill:#61db89;}.c{fill:#e3ffed;}</style></defs><g transform="translate(-1764 -527)"><rect class="a" width="56" height="56" rx="10" transform="translate(1764 527)"/><g transform="translate(1774.267 536.334)"><circle class="b" cx="18.5" cy="18.5" r="18.5" transform="translate(-0.268 -0.334)"/><g transform="translate(5.688 11.2)"><path class="c" d="M1375.094,318.87c0-4.963,3.192-7.87,7-7.87a6.133,6.133,0,0,1,4.412,1.932l-1.585,1.911a3.88,3.88,0,0,0-2.766-1.261c-2.278,0-3.986,1.953-3.986,5.186,0,3.275,1.547,5.247,3.926,5.247a4.187,4.187,0,0,0,3.111-1.484l1.586,1.869a6.087,6.087,0,0,1-4.8,2.218C1378.185,326.618,1375.094,323.894,1375.094,318.87Z" transform="translate(-1375.094 -311)"/><path class="c" d="M1392.765,313.806h-4.23v-2.5h11.511v2.5h-4.271v12.548h-3.01Z" transform="translate(-1375.99 -311.02)"/></g></g></g></svg>