<svg xmlns="http://www.w3.org/2000/svg" width="56" height="56" viewBox="0 0 56 56"><defs><style>.a{fill:#fff;opacity:0;}.b{fill:#9d71e6;}.c{fill:#ede1ff;}</style></defs><g transform="translate(-468 -528)"><rect class="a" width="56" height="56" rx="10" transform="translate(468 528)"/><g transform="translate(479.068 539.199)"><path class="b" d="M1198.491,221.92H1174.96a5.091,5.091,0,0,1-3.835-8.439l8.964-10.272V191.773a2.776,2.776,0,0,1,2.773-2.773h7.729a2.775,2.775,0,0,1,2.772,2.773v11.436l8.965,10.272a5.091,5.091,0,0,1-3.837,8.439Zm-15.629-31.053a.907.907,0,0,0-.906.906v12.136l-9.424,10.8a3.224,3.224,0,0,0,2.429,5.345h23.531a3.225,3.225,0,0,0,2.43-5.345l-9.425-10.8V191.773a.907.907,0,0,0-.906-.906Z" transform="translate(-1169.86 -189)"/><path class="b" d="M1198.558,223.066a4.158,4.158,0,0,0,3.133-6.892l-5.4-6.188c-4.789.53-7.592,3.057-10.367,3.493-5.241.825-6.309-.525-9.812-2.138l-4.218,4.833a4.158,4.158,0,0,0,3.132,6.892Z" transform="translate(-1169.926 -190.399)"/><g transform="translate(11.546 15.722)"><circle class="b" cx="3" cy="3" r="3" transform="translate(4.385 0.078)"/><circle class="c" cx="2.5" cy="2.5" r="2.5" transform="translate(-0.615 7.078)"/><circle class="c" cx="1.5" cy="1.5" r="1.5" transform="translate(5.385 12.078)"/></g></g></g></svg>