<svg xmlns="http://www.w3.org/2000/svg" width="56" height="56" viewBox="0 0 56 56"><defs><style>.a{fill:#fff;opacity:0;}.b{fill:#ff9f06;}.c{fill:#fce6ca;}.d{fill:#fcd8a9;}</style></defs><g transform="translate(-612 -528)"><rect class="a" width="56" height="56" rx="10" transform="translate(612 528)"/><g transform="translate(621.458 539.559)"><g transform="translate(0)"><rect class="b" width="2.8" height="37.333" rx="1.4" transform="matrix(0.943, 0.331, -0.331, 0.943, 22.942, 0)"/><rect class="b" width="2.8" height="37.333" rx="1.4" transform="translate(36.151 22.941) rotate(109.357)"/><rect class="b" width="2.8" height="37.333" rx="1.4" transform="translate(8.736 1.853) rotate(-25.642)"/><rect class="b" width="2.8" height="37.333" rx="1.4" transform="translate(34.298 8.735) rotate(64.358)"/><circle class="c" cx="14.467" cy="14.467" r="14.467" transform="translate(3.609 3.609)"/><path class="b" d="M14.4-1A15.4,15.4,0,0,1,25.289,25.289,15.4,15.4,0,1,1,3.511,3.511,15.3,15.3,0,0,1,14.4-1Zm0,28.933A13.533,13.533,0,1,0,.867,14.4,13.549,13.549,0,0,0,14.4,27.933Z" transform="translate(3.676 3.675)"/><circle class="d" cx="12.717" cy="12.717" r="12.717" transform="translate(4.407 4.901)"/><circle class="b" cx="2.8" cy="2.8" r="2.8" transform="translate(10.974 12.033)"/><circle class="b" cx="3.267" cy="3.267" r="3.267" transform="translate(18.052 19.658)"/><circle class="b" cx="1.867" cy="1.867" r="1.867" transform="translate(21.379 11.348)"/></g></g></g></svg>