<svg xmlns="http://www.w3.org/2000/svg" width="56" height="56" viewBox="0 0 56 56"><defs><style>.a{fill:#fff;opacity:0;}.b{fill:#01c6a4;}.c{fill:#caf9f4;}</style></defs><g transform="translate(-756 -528)"><rect class="a" width="56" height="56" rx="10" transform="translate(756 528)"/><g transform="translate(772.2 537.783)"><path class="b" d="M1098.693,210.134a11.515,11.515,0,0,1-8.882,13.648c-5.749,1.216-10.174-1.664-11.333-7.143-1.316-6.222,8.639-13.276,4.881-22.02C1090.717,197.832,1097.377,203.912,1098.693,210.134Z" transform="translate(-1078.358 -187.957)"/><path class="b" d="M1098.567,187.631a6.573,6.573,0,0,1,5.1,7.774c-.683,3.284-3.2,4.936-6.334,4.286-3.554-.74-4.957-7.562-10.391-7.6C1090.306,188.978,1095.012,186.891,1098.567,187.631Z" transform="translate(-1078.93 -187.482)"/><path class="c" d="M1088.933,223.383a.933.933,0,0,1,0-1.867,5.84,5.84,0,0,0,5.833-5.833.933.933,0,0,1,1.867,0A7.709,7.709,0,0,1,1088.933,223.383Z" transform="translate(-1079.001 -189.3)"/></g></g></svg>