<svg xmlns="http://www.w3.org/2000/svg" width="56" height="56" viewBox="0 0 56 56"><defs><style>.a{fill:#fff;opacity:0;}.b{fill:#ed5151;}.c{fill:#ffd9de;}</style></defs><g transform="translate(-900 -528)"><rect class="a" width="56" height="56" rx="10" transform="translate(900 528)"/><g transform="translate(912.352 540.391)"><path class="b" d="M992.441,208.671a8.737,8.737,0,0,1-17.473,0c0-4.825,8.737-13.217,8.737-13.217S992.441,203.846,992.441,208.671Z" transform="translate(-960.892 -190.339)"/><path class="c" d="M986.238,208.5a11.57,11.57,0,0,1-23.141,0c0-6.39,11.57-17.5,11.57-17.5S986.238,202.114,986.238,208.5Z" transform="translate(-960.154 -190.062)"/><path class="b" d="M983.1,207.5a11.57,11.57,0,0,1-23.141,0c0-6.39,11.57-17.5,11.57-17.5S983.1,201.114,983.1,207.5Z" transform="translate(-959.959 -190)"/><path class="c" d="M969.737,217.425A7.746,7.746,0,0,1,962,209.688a.938.938,0,1,1,1.876,0,5.868,5.868,0,0,0,5.862,5.862.938.938,0,0,1,0,1.876Z" transform="translate(-960.086 -191.165)"/></g></g></svg>