<svg xmlns="http://www.w3.org/2000/svg" width="56" height="56" viewBox="0 0 56 56"><defs><style>.a{fill:#fff;opacity:0;}.b{fill:#e065dc;}.c{fill:#ffe6fc;}</style></defs><g transform="translate(-1044 -527)"><rect class="a" width="56" height="56" rx="10" transform="translate(1044 527)"/><g transform="translate(1058.477 534.457)"><path class="b" d="M1194.654,302.729h-5.808V299h-4.661v3.729h-5.808a5.384,5.384,0,0,0-5.377,5.377v21.87a5.384,5.384,0,0,0,5.377,5.377h3.944v1.864h1.864v2.8h4.661v-2.8h1.864v-1.864h3.944a5.384,5.384,0,0,0,5.378-5.377v-21.87A5.384,5.384,0,0,0,1194.654,302.729Zm-16.277,1.864h16.277a3.516,3.516,0,0,1,3.513,3.513v1.147h-6.525v1.864h6.525v1.864h-6.525v1.864h6.525v3.289c-1.8.857-3.337,1.783-5.156,1.783-3.391,0-7.631-4.239-15.262-2.544a25.519,25.519,0,0,1-2.886.483v-9.751A3.516,3.516,0,0,1,1178.377,304.593Z" transform="translate(-1173 -299)"/><g transform="translate(6.634 22.302)"><circle class="c" cx="2.5" cy="2.5" r="2.5" transform="translate(-0.111 0.242)"/></g><g transform="translate(11.765 29.484)"><ellipse class="c" cx="2" cy="1.5" rx="2" ry="1.5" transform="translate(-0.242 0.059)"/></g></g></g></svg>