<svg xmlns="http://www.w3.org/2000/svg" width="56" height="56" viewBox="0 0 56 56"><defs><style>.a{fill:#fff;opacity:0;}.b{fill:#dedeff;}.c{fill:#7272f1;}.d{fill:#cacaff;}.e{fill:#7e7eed;}.f{fill:#bbbbf9;}.g{fill:#9d9df4;}</style></defs><g transform="translate(-1332 -527)"><rect class="a" width="56" height="56" rx="10" transform="translate(1332 527)"/><g transform="translate(1342.162 537.473)"><circle class="b" cx="16.883" cy="16.883" r="16.883" transform="translate(0.938 0.938)"/><path class="c" d="M16.821-1a17.816,17.816,0,0,1,12.6,30.422A17.821,17.821,0,1,1,9.884.4,17.71,17.71,0,0,1,16.821-1Zm0,33.766A15.945,15.945,0,1,0,.876,16.821,15.963,15.963,0,0,0,16.821,32.766Z" transform="translate(1 1)"/><circle class="d" cx="15" cy="15" r="15" transform="translate(2.838 2.527)"/><g transform="translate(8.124 10.401)"><path class="c" d="M1294.108,323.1l-.593-.283a9.056,9.056,0,0,0-.348-8.429l.567-.33a9.714,9.714,0,0,1,.373,9.042Z" transform="translate(-1275.654 -311.429)"/><path class="c" d="M1276.156,324.188a9.691,9.691,0,0,1,1.895-12.932l.416.508a9.04,9.04,0,0,0-1.767,12.056Z" transform="translate(-1274.495 -311.255)"/></g><g transform="translate(9.707 5.001)"><path class="c" d="M1293.5,310.8a11.869,11.869,0,0,0-16.718-1.68l-.593-.726a12.808,12.808,0,0,1,18.038,1.813Z" transform="translate(-1276.184 -305.498)"/><path class="c" d="M1284.429,332.6a12.816,12.816,0,0,1-6.076-1.533l.444-.826a11.87,11.87,0,0,0,13.153-1.264l.594.726a12.714,12.714,0,0,1-5.052,2.526A12.869,12.869,0,0,1,1284.429,332.6Z" transform="translate(-1276.318 -306.955)"/></g><g transform="translate(4.899 10.906)"><path class="c" d="M1296.228,325.838l-.793-.5a11.83,11.83,0,0,0,1.749-7.795l.931-.115a12.768,12.768,0,0,1-1.887,8.411Z" transform="translate(-1272.57 -312.143)"/><path class="c" d="M1273.037,325.485a12.806,12.806,0,0,1,.005-13.691l.793.5a11.868,11.868,0,0,0,0,12.69Z" transform="translate(-1271.057 -311.794)"/></g><circle class="e" cx="6.722" cy="6.722" r="6.722" transform="translate(11.098 11.1)"/><ellipse class="f" cx="1.253" cy="2.192" rx="1.253" ry="2.192" transform="matrix(0.659, -0.752, 0.752, 0.659, 18.96, 8.002)"/><ellipse class="f" cx="1.67" cy="0.789" rx="1.67" ry="0.789" transform="translate(2.237 17.744) rotate(-60)"/><ellipse class="f" cx="1.67" cy="1.11" rx="1.67" ry="1.11" transform="translate(10.264 26.845) rotate(-84.227)"/><ellipse class="g" cx="3.152" cy="1.513" rx="3.152" ry="1.513" transform="translate(19.314 24.713) rotate(-3.88)"/></g></g></svg>