<svg xmlns="http://www.w3.org/2000/svg" width="56" height="56" viewBox="0 0 56 56"><defs><style>.a{fill:#fff;opacity:0;}.b{fill:#00bcff;}</style></defs><g transform="translate(-1476 -527)"><rect class="a" width="56" height="56" rx="10" transform="translate(1476 527)"/><g transform="translate(1484.631 539.563)"><path class="b" d="M1383.568,201.907h-5.89l-2.945,5.1,2.945,5.1h5.89l2.945-5.1Z" transform="translate(-1365.296 -190.945)"/><path class="b" d="M1367.253,195.634h6.4l3.2,5.543-3.2,5.543h-6.4l-3.2-5.543Zm5.89.884h-5.38l-2.69,4.659,2.69,4.659h5.38l2.69-4.659Z" transform="translate(-1364.053 -190.214)"/><path class="b" d="M1387.459,195.634h6.4l3.2,5.543-3.2,5.543h-6.4l-3.2-5.543Zm5.89.884h-5.38l-2.69,4.659,2.69,4.659h5.38l2.69-4.659Z" transform="translate(-1366.405 -190.214)"/><path class="b" d="M1397.562,189.5h6.4l3.2,5.543-3.2,5.543h-6.4l-3.2-5.543Zm5.89.884h-5.38l-2.69,4.659,2.69,4.659h5.38l2.69-4.659Z" transform="translate(-1367.582 -189.5)"/><path class="b" d="M1387.459,207.18h6.4l3.2,5.543-3.2,5.543h-6.4l-3.2-5.543Zm5.89.884h-5.38l-2.69,4.659,2.69,4.659h5.38l2.69-4.659Z" transform="translate(-1366.405 -191.559)"/><path class="b" d="M1377.356,212.954h6.4l3.2,5.543-3.2,5.543h-6.4l-3.2-5.543Zm5.89.884h-5.38l-2.69,4.659,2.69,4.659h5.38l2.69-4.659Z" transform="translate(-1365.229 -192.231)"/><path class="b" d="M1373.465,207.68h-5.89l-2.945,5.1,2.945,5.1h5.89l2.945-5.1Z" transform="translate(-1364.12 -191.617)"/></g></g></svg>