<svg xmlns="http://www.w3.org/2000/svg" xmlns:xlink="http://www.w3.org/1999/xlink" width="614" height="247" viewBox="0 0 614 247"><defs><style>.a,.h{fill:#fff;}.a{stroke:#707070;}.b{opacity:0.5;}.b,.c,.f{fill:url(#a);}.c{opacity:0.57;}.d{opacity:0.79;fill:url(#c);}.e{clip-path:url(#d);}.f{opacity:0.84;}.g{fill:#6eb7df;}</style><linearGradient id="a" x1="0.5" x2="0.5" y2="1" gradientUnits="objectBoundingBox"><stop offset="0" stop-color="#daedf7"/><stop offset="1" stop-color="#fff" stop-opacity="0"/></linearGradient><linearGradient id="c" x1="0.5" x2="0.5" y2="1" gradientUnits="objectBoundingBox"><stop offset="0" stop-color="#cbe5f2" stop-opacity="0.4"/><stop offset="1" stop-color="#fff" stop-opacity="0"/></linearGradient><clipPath id="d"><rect class="a" width="166" height="202"/></clipPath></defs><g transform="translate(-1178 -153)"><path class="b" d="M684.922,791.725l-103.856-42.1A28.137,28.137,0,0,1,563.5,723.545V588.179a19.319,19.319,0,0,1,26.578-17.9l103.856,42.1A28.137,28.137,0,0,1,711.5,638.455V773.821A19.319,19.319,0,0,1,684.922,791.725Z" transform="translate(722.742 -408.332)"/><path class="c" d="M590.078,764.236l103.856-36.911c10.618-3.773,17.566-12.815,17.566-22.86V585.794c0-12.016-13.876-20.211-26.578-15.7L581.066,607.009c-10.618,3.773-17.566,12.815-17.566,22.86V748.54C563.5,760.556,577.376,768.751,590.078,764.236Z" transform="translate(631.664 -367.992)"/><path class="d" d="M684.922,791.725l-103.856-42.1A28.137,28.137,0,0,1,563.5,723.545V588.179a19.319,19.319,0,0,1,26.578-17.9l103.856,42.1A28.137,28.137,0,0,1,711.5,638.455V773.821A19.319,19.319,0,0,1,684.922,791.725Z" transform="translate(1080.5 -393.16)"/><g class="e" transform="translate(1446.866 153)"><path class="f" d="M590.078,791.725l103.856-42.1A28.137,28.137,0,0,0,711.5,723.545V588.179a19.319,19.319,0,0,0-26.578-17.9l-103.856,42.1A28.137,28.137,0,0,0,563.5,638.455V773.821A19.319,19.319,0,0,0,590.078,791.725Z" transform="translate(-554.5 -587.5)"/></g><g transform="translate(1178 165)"><circle class="g" cx="32.5" cy="32.5" r="32.5"/><rect class="g" width="52" height="49" rx="10" transform="translate(20 27)"/><rect class="h" width="67" height="67" rx="16" transform="translate(16 21)"/><g transform="translate(66.733 72.047) rotate(180)"><path class="h" d="M2.732,18.553a7.75,7.75,0,0,1,2.345.371,2.729,2.729,0,0,1-.017-.371A8.469,8.469,0,0,1,8.7,11.6a9.362,9.362,0,0,1,1.619-.877,5.706,5.706,0,0,0,3.373,1.08,5.912,5.912,0,0,0,5.87-5.3c.017-.2.034-.4.034-.607a5.9,5.9,0,1,0-11.807,0,3.246,3.246,0,0,0,.017.4A11.258,11.258,0,0,0,6.224,7.2,13.425,13.425,0,0,0,0,18.553c0,.169,0,.337.017.506A7.615,7.615,0,0,1,2.732,18.553Z" transform="translate(3.171)"/><path class="h" d="M16.664,6.747a8.39,8.39,0,0,1-3.188-.624,8.937,8.937,0,0,1-1.72-.945A5.829,5.829,0,0,0,8.551.641V.624A5.781,5.781,0,0,0,5.9,0,5.655,5.655,0,0,0,3.356.59a5.9,5.9,0,1,0,6.713,9.5,12.474,12.474,0,0,0,1.586.759,13.378,13.378,0,0,0,5.009.961,13.591,13.591,0,0,0,5.313-1.08A7.559,7.559,0,0,1,20.24,5.954,8.412,8.412,0,0,1,16.664,6.747Z" transform="translate(0 20.24)"/><path class="h" d="M8.315,13.207a10.124,10.124,0,0,0,.152-1.754,2.487,2.487,0,0,0,.017-.354A13.453,13.453,0,0,0,2.648,0,7.514,7.514,0,0,1,0,4.318,8.416,8.416,0,0,1,3.424,11.1a2.722,2.722,0,0,1-.034.523A8.349,8.349,0,0,1,3.019,13.7v.017a5.817,5.817,0,0,0-2.665,3.9,5.718,5.718,0,0,0-.1,1.08,5.808,5.808,0,0,0,1.6,4.014,5.8,5.8,0,0,0,4.3,1.889A5.9,5.9,0,0,0,8.315,13.207Z" transform="translate(21.674 7.455)"/></g></g></g></svg>