<svg xmlns="http://www.w3.org/2000/svg" width="15.31" height="17.497" viewBox="0 0 15.31 17.497"><defs><style>.a{fill:#596a74;}</style></defs><g transform="translate(15.31 17.497) rotate(180)"><path class="a" d="M5.625,17.5a.938.938,0,0,0,.8-1.42L2.03,8.749l4.4-7.329A.937.937,0,1,0,4.82.455L.134,8.266a.937.937,0,0,0,0,.965L4.82,17.042A.937.937,0,0,0,5.625,17.5Z" transform="translate(15.31 17.497) rotate(180)"/><path class="a" d="M5.625,17.5a.938.938,0,0,0,.8-1.42L2.03,8.749l4.4-7.329A.937.937,0,1,0,4.82.455L.134,8.266a.937.937,0,0,0,0,.965L4.82,17.042A.937.937,0,0,0,5.625,17.5Z" transform="translate(6.561 17.497) rotate(180)"/></g></svg>