<svg xmlns="http://www.w3.org/2000/svg" width="40" height="40" viewBox="0 0 40 40"><defs><style>.a{fill:#f2f2f2;opacity:0;}.b{fill:#596a74;}</style></defs><g transform="translate(284 52) rotate(180)"><rect class="a" width="40" height="40" rx="8" transform="translate(284 12) rotate(90)"/><g transform="translate(271.201 40.498) rotate(180)"><path class="b" d="M5.625,17.5a.938.938,0,0,0,.8-1.42L2.03,8.749l4.4-7.329A.937.937,0,1,0,4.82.455L.134,8.266a.937.937,0,0,0,0,.965L4.82,17.042A.937.937,0,0,0,5.625,17.5Z" transform="translate(15.31 17.497) rotate(180)"/><path class="b" d="M5.625,17.5a.938.938,0,0,0,.8-1.42L2.03,8.749l4.4-7.329A.937.937,0,1,0,4.82.455L.134,8.266a.937.937,0,0,0,0,.965L4.82,17.042A.937.937,0,0,0,5.625,17.5Z" transform="translate(6.561 17.497) rotate(180)"/></g></g></svg>